<svg id="visual" viewBox="0 0 900 600" width="900" height="600" xmlns="http://www.w3.org/2000/svg" xmlns:xlink="http://www.w3.org/1999/xlink" version="1.1"><path d="M0 388L21.5 396.3C43 404.7 86 421.3 128.8 413.8C171.7 406.3 214.3 374.7 257.2 355.5C300 336.3 343 329.7 385.8 349.2C428.7 368.7 471.3 414.3 514.2 422.3C557 430.3 600 400.7 642.8 391.7C685.7 382.7 728.3 394.3 771.2 384.5C814 374.7 857 343.3 878.5 327.7L900 312L900 601L878.5 601C857 601 814 601 771.2 601C728.3 601 685.7 601 642.8 601C600 601 557 601 514.2 601C471.3 601 428.7 601 385.8 601C343 601 300 601 257.2 601C214.3 601 171.7 601 128.8 601C86 601 43 601 21.5 601L0 601Z" fill="#2d2e32" stroke-linecap="round" stroke-linejoin="miter"></path></svg>